<svg height="558" width="720" xmlns="http://www.w3.org/2000/svg">
<rect height="558" fill="#555" width="720"></rect>
<text fill="#7f7" font-family="Courier New" font-size="12" xml:space="preserve">
<tspan x="10" y="26">8 megabytes installed</tspan>
<tspan x="10" y="42"></tspan>
<tspan x="10" y="58">node_modules</tspan>
<tspan x="10" y="74">└─┬ ripple-emulator@0.9.36 </tspan>
<tspan x="10" y="90">  ├── accounting@0.4.1 </tspan>
<tspan x="10" y="106">  ├── colors@0.6.0-1 </tspan>
<tspan x="10" y="122">  ├── connect-xcors@0.5.2 </tspan>
<tspan x="10" y="138">  ├─┬ express@3.1.0 </tspan>
<tspan x="10" y="154">  │ ├── buffer-crc32@0.1.1 </tspan>
<tspan x="10" y="170">  │ ├── commander@0.6.1 </tspan>
<tspan x="10" y="186">  │ ├─┬ connect@2.7.2 </tspan>
<tspan x="10" y="202">  │ │ ├── bytes@0.1.0 </tspan>
<tspan x="10" y="218">  │ │ ├── formidable@1.0.11 </tspan>
<tspan x="10" y="234">  │ │ ├── pause@0.0.1 </tspan>
<tspan x="10" y="250">  │ │ └── qs@0.5.1 </tspan>
<tspan x="10" y="266">  │ ├── cookie@0.0.5 </tspan>
<tspan x="10" y="282">  │ ├── cookie-signature@0.0.1 </tspan>
<tspan x="10" y="298">  │ ├─┬ debug@2.6.4 </tspan>
<tspan x="10" y="314">  │ │ └── ms@0.7.3 </tspan>
<tspan x="10" y="330">  │ ├── fresh@0.1.0 </tspan>
<tspan x="10" y="346">  │ ├── methods@0.0.1 </tspan>
<tspan x="10" y="362">  │ ├── mkdirp@0.3.3 </tspan>
<tspan x="10" y="378">  │ ├── range-parser@0.0.4 </tspan>
<tspan x="10" y="394">  │ └─┬ send@0.1.0 </tspan>
<tspan x="10" y="410">  │   └── mime@1.2.6 </tspan>
<tspan x="10" y="426">  ├── moment@1.7.2 </tspan>
<tspan x="10" y="442">  ├── open@0.0.3 </tspan>
<tspan x="10" y="458">  └─┬ request@2.12.0 </tspan>
<tspan x="10" y="474">    ├─┬ form-data@0.0.3 </tspan>
<tspan x="10" y="490">    │ ├── async@0.1.9 </tspan>
<tspan x="10" y="506">    │ └─┬ combined-stream@0.0.3 </tspan>
<tspan x="10" y="522">    │   └── delayed-stream@0.0.5 </tspan>
<tspan x="10" y="538">    └── mime@1.2.7</tspan>
</text>
</svg>
